<?xml version="1.0" encoding="utf-8"?>
<!-- Generator: Adobe Illustrator 22.1.0, SVG Export Plug-In . SVG Version: 6.00 Build 0)  -->
<svg version="1.1" id="Layer_1" xmlns="http://www.w3.org/2000/svg" xmlns:xlink="http://www.w3.org/1999/xlink" x="0px" y="0px"
	 viewBox="0 0 400 400" style="enable-background:new 0 0 400 400;" xml:space="preserve">
<style type="text/css">
	.st0{fill:#EFEFEF;stroke:#000000;stroke-miterlimit:10;}
	.st1{clip-path:url(#SVGID_4_);}
	.st2{fill:none;stroke:#000000;stroke-miterlimit:10;}
	.st3{clip-path:url(#SVGID_6_);}
	.st4{fill:#018FD3;stroke:#FFFFFF;stroke-miterlimit:10;}
	.st5{fill:#FFFFFF;}
	.st6{font-family:'PetangueDEMO';}
	.st7{font-size:50px;}
</style>
<g id="Africa">
	<path class="st0" d="M337.6,113.7h0.3c-0.2-0.5,0-0.2-0.3-0.5V113.7z"/>
	<polygon class="st0" points="183,352.2 185.7,352.2 205.6,352.2 226.1,324.9 229.3,313.8 236.7,307 236.7,291.2 256.6,277 
		256.6,248.1 251.9,245.5 252.4,235.5 265.6,209.7 270.8,209.7 292.4,170.8 292.4,160.9 288.2,158.7 277.7,162.4 274,164 
		271.4,161.9 271.9,158.7 266.6,152.4 260.3,152.4 255.1,146.1 251.4,137.7 247.7,129.8 242.4,121.4 241.9,108.3 240.4,101.4 
		237.7,98.8 235,83.1 231.9,78.3 226.7,78.3 223,78.3 218.8,75.2 205.6,75.2 195.7,75.2 197.2,70.9 190.4,70.9 183,68.8 186.2,77.8 
		183,79.9 183,76.2 171.5,74.1 171.5,71.5 165.2,68.8 156.8,68.8 156.8,64.6 156.8,60.4 156.8,55.7 156.8,53.1 156.8,49.9 
		156.8,48.4 149.9,45.7 126.5,45.7 118.9,52 110,55.2 103.7,58.3 103.7,55.7 103.7,52.6 98.4,52.6 98.4,56.2 95.3,63.1 86.3,68.8 
		86.3,74.6 86.3,79.9 86.3,87.2 62.1,103 62.1,138.8 62.1,145.6 62.1,150.9 69.5,158.7 80.5,169.8 81.1,176.6 88.4,181.9 89,186.6 
		113.7,188.2 121,182.9 135.7,181.3 152,188.2 154.7,213.4 163.1,226 165.2,237.1 167.8,242.8 167.3,251.8 167.3,261.2 159.9,266.5 
		162.5,287.5 167.3,300.7 169.9,324.3 172.5,343.8 177.3,352.2 181.5,354.3 	"/>
	<polygon class="st0" points="183,352.2 185.7,352.2 205.6,352.2 226.2,324.9 229.3,313.8 236.7,307 236.7,291.2 256.6,277 
		256.6,248.1 251.9,245.5 252.4,235.5 265.6,209.7 270.8,209.7 292.4,170.8 292.4,160.9 288.2,158.7 277.7,162.4 274,164 
		271.4,161.9 271.9,158.7 266.6,152.4 260.3,152.4 255.1,146.1 251.4,137.7 247.7,129.8 242.4,121.4 241.9,108.3 240.4,101.4 
		237.7,98.8 235,83.1 231.9,78.3 226.7,78.3 223,78.3 218.8,75.2 205.6,75.2 195.7,75.2 197.2,70.9 190.4,70.9 183,68.8 186.2,77.8 
		183,79.9 183,76.2 171.5,74.1 171.5,71.5 165.2,68.8 156.8,68.8 156.8,64.6 156.8,60.4 156.8,55.7 156.8,53.1 156.8,49.9 
		156.8,48.4 149.9,45.7 126.5,45.7 118.9,52 110,55.2 103.7,58.3 103.7,55.7 103.7,52.6 98.4,52.6 98.4,56.2 95.3,63.1 86.3,68.8 
		86.3,74.6 86.3,79.9 86.3,87.2 62.1,103 62.1,138.8 62.1,145.6 62.1,150.9 69.5,158.7 80.5,169.8 81.1,176.6 88.4,181.9 89,186.6 
		113.7,188.2 121,182.9 135.7,181.3 152,188.2 154.7,213.4 163.1,226 165.2,237.1 167.8,242.8 167.3,251.8 167.3,261.2 159.9,266.5 
		162.5,287.5 167.3,300.7 169.9,324.3 172.5,343.8 177.3,352.2 181.5,354.3 	"/>
	<g>
		<path class="st0" d="M283.3,262.1l-0.9,6.1l-3,0.7v4.2l-3.5,0.9l-3.2,2.6l0.1,2.3c0,0-1.7,4.1-1.5,4.6s-1,2.2-1,2.2l-3.9,0.4v4.4
			c0,0,0.6,3.9,0,4.3l-1.9,1.5l-1.7,4.3l1.9,2.6l0.4,5.6l1.3,2.5l4.9-2.3l2.2-2.2l1.7-2.2l2-1l0.9-1.9h1.3l0.9-9.9l0.7-3l3-1
			l1.5-2.9l3.5-2.9v-20L283.3,262.1z"/>
		<g>
			<g>
				<g>
					<defs>
						<path id="SVGID_2_" d="M283.3,262.1l-0.9,6.1l-3,0.7v4.2l-3.5,0.9l-3.2,2.6l0.1,2.3c0,0-1.7,4.1-1.5,4.6s-1,2.2-1,2.2
							l-3.9,0.4v4.4c0,0,0.6,3.9,0,4.3l-1.9,1.5l-1.7,4.3l1.9,2.6l0.4,5.6l1.3,2.5l4.9-2.3l2.2-2.2l1.7-2.2l2-1l0.9-1.9h1.3l0.9-9.9
							l0.7-3l3-1l1.5-2.9l3.5-2.9v-20L283.3,262.1z"/>
					</defs>
					<clipPath id="SVGID_4_">
						<use xlink:href="#SVGID_2_"  style="overflow:visible;"/>
					</clipPath>
					<g class="st1">
						<rect x="262.9" y="262.1" class="st0" width="26.2" height="49.2"/>
					</g>
				</g>
				<g>
					<path id="SVGID_1_" class="st2" d="M283.3,262.1l-0.9,6.1l-3,0.7v4.2l-3.5,0.9l-3.2,2.6l0.1,2.3c0,0-1.7,4.1-1.5,4.6
						s-1,2.2-1,2.2l-3.9,0.4v4.4c0,0,0.6,3.9,0,4.3l-1.9,1.5l-1.7,4.3l1.9,2.6l0.4,5.6l1.3,2.5l4.9-2.3l2.2-2.2l1.7-2.2l2-1l0.9-1.9
						h1.3l0.9-9.9l0.7-3l3-1l1.5-2.9l3.5-2.9v-20L283.3,262.1z"/>
				</g>
			</g>
		</g>
	</g>
	<path class="st0" d="M266.5,311.4l4.9-2.3l2.2-2.2l1.7-2.2l2-1l0.9-1.9h1.3l0.9-9.9l0.7-3l3-1l1.5-2.9l3.5-2.9v-20h-5.8l-0.9,6.1
		l-3,0.7v4.2l-3.5,0.9l-3.1,2.6l0.1,2.3c0,0-1.7,4.1-1.5,4.6s-1,2.2-1,2.2l-3.9,0.4v4.4c0,0,0.6,3.9,0,4.3l-1.9,1.5l-1.7,4.3
		l1.9,2.6l0.4,5.6L266.5,311.4z"/>
	<g>
		<polygon class="st0" points="281.9,220.2 280.4,224.1 281.9,227.8 283.4,227.8 283.4,226 283.4,224 283.4,220.2 		"/>
		<g>
			<g>
				<g>
					<defs>
						<polygon id="SVGID_5_" points="281.9,220.2 280.4,224.1 281.9,227.8 283.4,227.8 283.4,226 283.4,224 283.4,220.2 						"/>
					</defs>
					<clipPath id="SVGID_6_">
						<use xlink:href="#SVGID_5_"  style="overflow:visible;"/>
					</clipPath>
					<g class="st3">
						<rect x="280.4" y="220.2" class="st0" width="3" height="7.5"/>
					</g>
				</g>
				<g>
					<polygon id="SVGID_3_" class="st2" points="281.9,220.2 280.4,224.1 281.9,227.8 283.4,227.8 283.4,226 283.4,224 283.4,220.2 
											"/>
				</g>
			</g>
		</g>
	</g>
	<polyline class="st0" points="281.9,227.8 280.4,224.1 281.9,220.2 283.4,220.2 283.4,224 283.4,226 283.4,227.8 	"/>
</g>
<circle class="st4" cx="208.1" cy="187.2" r="21"/>
<text transform="matrix(1 0 0 1 200 200.0001)" class="st5 st6 st7">5</text>
</svg>
