<?xml version="1.0" encoding="utf-8"?>
<!-- Generator: Adobe Illustrator 22.1.0, SVG Export Plug-In . SVG Version: 6.00 Build 0)  -->
<svg version="1.1" id="Layer_1" xmlns="http://www.w3.org/2000/svg" xmlns:xlink="http://www.w3.org/1999/xlink" x="0px" y="0px"
	 viewBox="0 0 400 400" style="enable-background:new 0 0 400 400;" xml:space="preserve">
<style type="text/css">
	.st0{fill:#EFEFEF;stroke:#231F20;stroke-miterlimit:10;}
	.st1{fill:#018FD3;stroke:#FFFFFF;stroke-miterlimit:10;}
	.st2{fill:#FFFFFF;}
	.st3{font-family:'PetangueDEMO';}
	.st4{font-size:50px;}
</style>
<g id="Asia">
	<path class="st0" d="M89.9,197.6c-3.5,0.1-6.3-0.8-6.3-2.2c0.1-1.7,0.5-3.3,1.2-4.8c0.7-1.3,1.8-3.6,2.5-5.2s3.7-2.8,6.7-2.8
		s6.1-1.7,7-3.7c1.3-2.7,2.9-5.1,4.9-7.4c1.8-2,3.3-5,3.3-6.6s2-4.2,4.6-5.8c2.5-1.5,4.6-3.5,6.4-5.8c1-1.6,1.6-3.4,1.8-5.3
		c0-1.3-1.3-2.8-2.9-3.4c-2.4-0.7-4.9-1-7.4-1s-5.5-0.9-6.7-2.1s-2.2-1-2.2,0.3s-1.6,2.8-3.5,3.4c-2.7,0.9-5.3,2-7.7,3.4
		c-2.3,1.3-4.2,3.4-4.2,4.7c0.1,1.2-0.7,2.2-1.9,2.4c-1.5-0.1-2.9-0.6-4.2-1.3c-2.1-1.4-4.1-3-5.9-4.7c-1.9-1.9-4.2-4.2-5-5.3
		c-1.2-1.2-2.9-1.9-4.6-1.8c-2.2-0.1-4.4-0.7-6.4-1.7c-1.8-0.9-3.4-2.9-3.6-4.4c-0.2-1.9-0.6-3.8-1.2-5.7c-0.5-1.6-1.5-3.2-2.2-3.6
		s-1-3.3-0.6-6.4c0.4-2.8,0.5-5.7,0.3-8.5c-0.3-1.7-0.3-3.5,0-5.2c0.2-1.5-0.5-2.9-1.8-3.7c-1.3-0.7-2.4-0.8-2.5-0.1
		s-1.5,1.7-3.1,2.3s-3,2-3,3.1s-1.8,2.2-3.8,2.4c-2,0.2-4-0.8-5-2.6c-0.7-1.6-1.7-3.8-2.1-4.7c-0.5-1.5-0.8-3.1-0.8-4.7
		s0.6-2.9,1.3-2.9s0.7-0.9,0-2.1S30,90.2,30,87.6s2.1-6.7,4.7-9l0.2-0.2c2.6-2.3,6.1-4.3,8-4.3l5.8-0.1c2,0.1,4,0.6,5.8,1.4
		c1.7,0.7,3.3,1.7,4.7,3c0.7,0.9,3.1,1.6,5.3,1.6c2.2,0,4.3-1.4,4.7-3.1l1.3-5.3c0.6-1.8,1.3-3.6,2.2-5.3c0.9-1.7,3.5-3,5.9-3
		s5.3-1.8,6.6-4.1s5.2-4.2,8.7-4.2H96c3.3,0,6.6,0.3,9.9,1.1c2.1,0.6,4.1,1.4,6,2.3c1.4,0.7,5.1,2.3,8.3,3.5l7.7,3
		c3.9,1.4,7.9,2.5,11.9,3.3c3.1,0.5,6.1,1.4,8.9,2.6c2,1.4,3.5,3.3,4.5,5.5c0.9,2.2,2.8,3.9,4.2,3.9s2.6,0.8,2.6,1.9s1,1,2.1,0
		s3-2.5,4.1-3.3s4.3-1.4,7.1-1.3c2.9,0.1,5.8,1,8.3,2.5c2.3,1.4,5,1.9,7.6,1.3c2.8-0.8,5.2-2.6,6.8-5c1.3-2.2,5.2-4.2,8.6-4.6
		l1.1-0.1c3.5-0.4,7.1-0.2,8,0.5c1.4,1.3,2.5,2.9,3.2,4.7c0.8,1.9,3.4,3.5,5.9,3.5s4.5-1.2,4.5-2.6s2.8-2.2,6.2-1.7l10.5,1.5
		c3.4,0.5,6.2,1.3,6.2,1.8s2.8,1,6.3,1h2.2c3.9-0.1,7.7-1.3,11-3.3c2.7-2,5.3-4.2,7.6-6.6c1.6-1.7,2.9-4,2.9-5s1.2-2,2.6-2.1
		s4-0.3,5.8-0.3s4.7,1.5,6.6,3.4s5.4,5.5,7.8,8l1.3,1.3c2.9,2.9,6.2,5.2,9.9,7c3.4,1.6,6.1,4.3,7.9,7.6c1.3,2.9,2.4,6.3,2.4,7.6
		c0,1.3-1.5,2.6-3.4,2.9s-3.7,1.1-5.3,2.4c-1.1,1.3-1.4,3.1-1,4.7s2.8,3,5.2,3.2s5.3-0.3,6.3-1s3.9-1.3,6.3-1.3
		c2.2,0,4.4,0.2,6.6,0.8c1.2,0.4,1.6,3.6,1.1,7v0.2c-0.6,3.4-2.6,7-4.5,8.1c-3,1.5-6.2,2.8-9.3,4l-2.4,0.9c-3.2,1.2-7.5,2.9-9.3,3.8
		c-2,1.2-3.2,3.4-2.9,5.8c0.3,3.3,0.3,6.7,0,10c-0.3,3.2-0.5,7.7-0.5,10s-1.4,4.1-3.1,3.9s-3.7-2.2-4.2-4.5c-0.8-2.6-2.2-5-4.2-6.8
		c-1.7-1.4-2.9-4.9-2.6-7.6c0.1-2.9-2.1-5.4-5-5.5l0,0c-2.4-0.3-4.7-0.3-7.1,0c-1.4,0.7-2.8,1.6-3.9,2.6c-1.3,1.2-1.9,2.6-1.3,3.2
		s2.5,2.6,4.2,4.5s2.5,5,1.6,6.8c-0.9,2-1.1,4.2-0.5,6.3c0.6,1.6,1.6,4.6,2.4,6.6c0.9,3.3,1.3,6.6,1.3,10V195c0,3-2.3,7.2-5.1,9.3
		l-8.3,6.2c-2.8,2.1-6.7,3.8-8.7,3.8c-2.1,0-4.1,0.8-5.8,2.1c-2.1,1.7-4.4,3.1-6.8,4.1c-3.2,1.3-6.6,2-10,2.1c-2.9,0-5.3,2.7-5.3,6
		s1.2,6,2.6,6s3.2,1.5,3.9,3.4s1.3,3.8,1.8,5.8c0.3,1.3-1.5,2.4-3.9,2.4s-4.4,2.8-4.3,6.3l0.2,6.8c0.1,3.5-1,7.2-2.5,8.4
		s-4.3,0.4-6.3-1.6l-6.8-6.8c-1.7-1.7-3.9-2.5-4.7-1.6s-0.9,4.3-0.1,7.7l1.2,5.1c0.8,3.4,2.4,7.1,3.6,8.2c1.3,1.4,2.6,2.9,3.7,4.5
		c0.9,1.3,1.8,2.1,2.1,1.8v10.5c0,1.8-0.9,3.4-2.4,4.5c-1.3,0.7-2.7,0.6-3.1-0.3c-0.4-0.8-1.2-1.4-2.1-1.3c-0.7,0.1-1.3,1.3-1.3,2.6
		s1.6,3.4,3.7,4.7c2.6,1.8,5,3.9,7.1,6.3c1.9,2.2,3.5,5.4,3.7,7.1s0.3,5.5,0.3,8.4s2.7,5.2,6,5.2s6.6,0.8,7.4,1.8
		c0.6,0.9,1.5,1.6,2.6,1.8c0.7,0,1.3,1.2,1.3,2.6c0,1.5,0.1,3,0.3,4.5c0.1,1-1.8,1.8-4.2,1.8c-2.6-0.1-5.2-0.9-7.4-2.4
		c-1.7-1.3-3.7-2.1-5.8-2.4c-1.6,0-4.3-1.8-6-3.9s-2.9-4.9-2.6-6c0.2-1.3-0.6-2.5-1.8-2.9c-2-1-3.8-2.4-5.3-4.2
		c-1.9-2.3-3.5-4.9-4.7-7.6c-1-2.3-1.7-5.3-1.6-6.6s-0.9-4-2.4-6s-3.7-5.3-5-7.4s-2.1-4.4-2.4-6.8c0.1-2,0.7-3.9,1.8-5.5
		c1-1.3,3.1,0.2,4.7,3.3c0,0,0.3,0.7,2.4,0.7h2.1c0.3,3.2,1.2,6.1,2.1,6.6s1.6-0.7,1.6-2.6v-5c-0.3-1.7-0.8-3.4-1.6-5
		c-0.8-1.7-1.9-3.3-3.4-4.5c-1-0.6-2.2-3.9-2.5-7.3l-1.7-15.3c-0.4-3.5-0.8-7.9-1-10c-0.3-2.2-2-3.9-4.2-4.2s-4.3-2.7-4.7-5.4
		s-2.1-5.4-3.7-6s-3-3.7-3.1-6.7s-1.7-5.5-3.4-5.5c-2.1-0.1-4.3-0.4-6.3-1.1c-1.7-0.6-5.2,1-7.6,3.4l-4.2,4.2
		c-2.3,2.2-4.3,4.7-6,7.3c-1.1,1.7-2.8,3-4.7,3.4c-1.7,0.3-5,2.6-7.4,5.2l-1.1,1.1c-2.5,3.1-4.1,7-4.4,11l-0.2,5.8
		c-0.1,3.5,0.6,6.8,1.7,7.4s2,2.6,2.1,4.5s1,3.6,1.8,3.9c1.1,0.6,1.8,1.7,1.8,2.9c0.1,1.3-0.4,2.6-1.3,2.9c-1.5,0.4-3,0.8-4.5,1
		c-1.6,0.3-2.8-1-2.6-2.9c0.1-1.9-0.6-4-1.6-4.7c-0.9-0.7-2.1-0.9-3.1-0.5c-0.7,0.4-2.3-0.8-3.4-2.6c-1.3-2.4-2.1-5.1-2.4-7.9
		c-0.5-3.5-1.7-6.9-3.4-9.9l-3.7-6.4c-2-3.7-3.3-7.6-4.1-11.7l-1.7-11.1c-0.5-3.4-1.8-4.9-2.8-3.3s-3.8,1.1-6.1-1.1
		s-4.5-5.7-4.8-7.9s-2.2-6-4.4-8.4s-4.8-4.4-6-4.2S93.4,197.5,89.9,197.6L89.9,197.6z"/>
	<path class="st0" d="M325.9,171.2c-0.8-0.4-1.6-1-2.1-1.7c-0.4-0.6-1.1-1.1-1.8-1.3c-0.8-0.1-1.6-0.5-2.2-0.9
		c-0.8-0.5-0.7-1.4,0.2-2c1.6-1,3.3-1.8,5-2.6l-0.2-0.6c-0.2-0.6,1.7-2.6,2.3-2.6h0.6c2.7,0,5.5-0.7,6.3-1.5s2-2.1,2.7-2.9
		s0.8-2.7,0.2-4.4h2.1c2.2-0.8,4.3-2.2,4.6-3.1c0.5-1.3,1.1-2.7,1.7-3.9c0.7-1.6,1.1-3.3,1.2-5c0.1-1.6,0.9-3.1,2.2-3.9
		c1.1-0.7,2.5-0.4,3.2,0.7l0.1,0.1h1.3c1.6,0,3,1.2,3.2,2.9v5.8c0,1.7-0.7,3.4-1.5,3.7s-1.5,2.1-1.5,3.9c0,1.5-0.1,3.1-0.4,4.6
		c-0.2,0.7-0.6,1.9-0.9,2.8c-0.5,1.1-1.5,2-2.7,2.4c-1.1,0.4-2.1,1-3.1,1.7c-0.7,0.5-1.5,1-2.3,1.3c-0.7,0.3-1.4,0.5-2.2,0.5
		c-0.4,0-0.9,1.2-1.2,2.8s-0.7,2.8-1,2.8c-1.1-0.3-2.2-0.8-3.3-1.3c-1.4-0.7-3-1.1-4.6-1.3c-1,0-1.9,0.3-1.9,0.6
		c-0.3,0.7-0.9,1.3-1.5,1.7C327.7,171.1,326.8,171.4,325.9,171.2z"/>
	<path class="st0" d="M350.5,130.2c0.5-0.4,1.1-2.2,1.4-4.2c0.3-1.7,0.5-3.5,0.5-5.2c0.2-2.3,0.5-4.6,1-6.8h3.9
		c2.5,0.1,4.9,1,6.8,2.6c1.4,1.3,3.1,2.4,4.9,3l0.2,1.1c0.1,0.6,0,1.2-0.3,1.7c-2.2,2.7-4.1,5.7-4.2,6.7s-1.7,1.8-3.5,1.8h-9.8
		C350.4,130.9,350,130.6,350.5,130.2z"/>
	<path class="st0" d="M251.6,231.3c-0.1,0.6-0.9,1.1-1.8,1.1c-1,0-2-0.5-2.7-1.3c-1.2-1.1-2.6-1.8-4.2-2.1l0.6-0.6l0.6-0.6
		c1.5-0.7,3.1-1.5,4.5-2.3c0.7-0.5,1.8,0,2.5,1.1h2.1c0.5,0.9,0.9,1.8,1.1,2.8c0,0.4-0.6,0.9-1.4,0.9
		C252.4,230.2,251.8,230.6,251.6,231.3z"/>
	<path class="st0" d="M282.3,252.2c-0.7-0.3-1.4-0.7-2-1.2c-0.9-0.7-2-1.2-3.2-1.4l-1.1-1.5l-1.1-1.5c-0.8-0.9-0.3-1.6,1.1-1.5
		l0.6-0.2l0.6-0.2c1.4,1.2,2.5,2.7,3.2,4.5l1.3-0.6l1.3-0.6c0.8-1.6,1.7-3.2,2.7-4.7c0.7-1.2,1.1-2.5,1.2-3.9v-4.6
		c0-1.3,0.5-1.7,1.1-1c0.7,1.3,0.9,2.7,0.6,4.2h2.5c0.6,0.7,0.9,1.6,0.9,2.5c0,1.2-0.1,2.3-0.2,3.5l-0.6,0.4
		c-1.2,0.8-2.4,1.7-3.4,2.8c-0.7,0.9-1.2,2-1.5,3.1c-0.4,1.1-1.3,2-2.1,2L282.3,252.2z"/>
	<path class="st0" d="M287,281.9c0.3,0.7,1,0.8,1.5,0.1c1.2-1.1,2.5-2,3.9-2.7l-0.4-0.6c-0.4-0.6-0.3-3.5-0.3-3.5
		c0.2-3.5-0.2-7.1-0.8-8c-1-1.2-2.2-2.3-3.6-3c-1.3-0.7-2.5-1.6-3.5-2.7c-0.7-1-1.4-2.1-1.9-3.2c-0.6-1.1-1.5-1.9-2.6-2.2
		c-0.9-0.2-1,2.3-0.2,5.5l0.4,1.5c0.4,1.5,0.4,3,1.9,4l1.5,1.1c-0.1,2.2-0.1,4.4-0.1,4.9s-0.4,1-0.9,1.2s-0.8,0.8-0.6,1.3
		c0.4,0.7,1.1,1.2,1.9,1.3c1.1,0.3,1.9,1,2.5,2C286.1,279.8,286.8,281.1,287,281.9z"/>
	<path class="st0" d="M287.5,261.2c-0.4,0-0.8-0.9-0.8-1.9c-0.1-0.9,0.6-1.8,1.5-1.9c0.8,0,1.5,0.7,1.5,1.5c0,0.7-0.2,1.4-0.8,1.9
		C288.5,261,288,261.1,287.5,261.2z"/>
	<path class="st0" d="M254.5,325c0-0.3,1.4-0.5,3.1-0.5s3.1-1,3.1-2.1s0.6-2.2,1.6-2.8c0.9-0.4,1.6-2.9,1.6-5.8s0.4-5.6,0.9-6.2
		s0.9-3.9,0.9-7.4v-15.8c0-3.5-1.1-6.3-2.4-6.3s-2.6,0.6-3.5,1.6c-0.7,0.9-1.2,2-1.5,3.1c-0.4,1.1-1.1,2-2,2.7c-0.9,0.6-1.9,1-3,1.2
		c-0.7,0-2.2,1.5-3.3,3.3c-1.5,2.3-3.3,4.4-5.2,6.3c-1.4,1.3-2.7,2.6-3.9,4c-0.4,0.6-2,1-3.4,1c-1.5,0-2.7,1.3-2.7,2.8
		s0.6,3.2,1.4,3.8s1.4,2.9,1.5,5.2s0.8,4.8,1.7,5.3c0.9,0.6,1.9,1,3,1.3c0.9,0.2,1.7,0.5,2.3,1.1c0.5,0.5,2.5,0.9,4.4,0.9h2.3
		c1.8,0,3.2,0.9,3.2,1.9L254.5,325z"/>
	<path class="st0" d="M270.4,328.8c-1.1,0-2.1-0.2-2.3-0.5s-0.8-1.5-1.4-2.8c-0.7-1.7-0.8-3.6-0.4-5.5c0.3-1.6,0.8-3.2,1.4-4.8
		c0.5-1.1,1.4-1.9,2.4-2.6c0.9-0.4,1.5-1.3,1.7-2.2c0.2-1.2,0.7-2.3,1.4-3.2c0.8-1.1,1.2-2.3,1.4-3.6c0-0.9,1.5-2,3.3-2.4
		c2.5-0.4,5.1-0.4,7.6,0c2.4,0.4,4.3,1.4,4.3,2.4c0,0.8-0.1,1.6-0.4,2.3h-1.1c-1.1,0-4.2,0.1-4.2,0.1c-3.5,0.1-7.2,0.9-8.4,1.8
		s-1.8,2.5-1.4,3.5c0.8,1.4,2,2.5,3.4,3.1c1.5,0.7,2.6,2,2.9,3.6c0.2,1.9,0.5,3.7,1,5.5h2.8c0.4,1,0.4,2,0.1,3
		c-0.3,1.2-1.2,1.9-1.9,1.7s-1.5-0.2-1.6,0s-0.4,0.4-0.6,0.4c-1-0.3-2-0.6-2.9-1.1c-1.1-0.4-2.1-1-3.1-1.6c-0.4-0.3-0.9,0.2-1.2,1.1
		C272.5,328.2,271.5,328.8,270.4,328.8z"/>
	<path class="st0" d="M302.5,309.6c-0.7,0.2-1.3,0-1.3-0.4c-0.2-0.8-0.7-1.6-1.4-2.1c-0.7-0.6-1.2-1.4-1.4-2.3
		c0.1-0.7,0.7-1.1,1.4-1.1c0.9,0.1,1.9,0.3,2.7,0.9c0.7,0.5,1.2,1.3,1.3,2.1v1.9C303.8,308.9,303.2,309.4,302.5,309.6z"/>
	<path class="st0" d="M330.9,340.3c-0.8-0.5-1.5-2.4-1.5-4.3c0-1.8-0.2-3.6-0.6-5.3c-0.3-1-0.9-2-1.7-2.8c-0.8-0.7-1.6-1.6-2.2-2.5
		c-0.8-1-1.8-1.7-3-2.1c-1.4-0.5-2.8-1.3-4-2.2c-1.2-0.9-2.1-2.3-2.1-3s-1.1-1.8-2.3-2.4s-2.4-1.6-2.4-2.2c0.1-0.9,0.5-1.7,1.1-2.4
		c0.6-0.7,1.6-0.9,2.5-0.7c0.8,0.2,1.5,2.6,1.6,5.3h1.3c2.4,0.2,6.3,0.8,8.8,1.3s6.2,1,8.3,1.3h0.9c0.9,0,5.3,0.2,5.8,0.2
		s1.8-0.9,2,0.9s1.3,5.1,1.3,6.2v1.1c0,2.5,0.5,4.9,1.1,5.4s1.1,2.4,1.1,4.2v7.6c0,0.5-1.2,1-2.7,1c-1.6,0-3.1-0.7-4.3-1.8
		c-1.2-1.1-2.8-1.8-4.4-1.8C333.7,341.2,332.2,340.9,330.9,340.3z"/>
	<path class="st0" d="M286.5,214.3c-0.9,0.7-1.7,0.5-1.7-0.5c-0.1-1.2-0.7-2.2-1.7-2.8l1.7-1.5l1.7-1.5c0.9-1.6,2.2-2.8,2.9-2.8
		s1.2,0.8,1.2,1.8v2.6c-0.2,0.8-0.6,1.6-1.2,2.2C288.5,212.6,287.6,213.5,286.5,214.3z"/>
	<path class="st0" d="M301.1,216.6h1.1c0.9,0,1.6,0.5,1.6,1s-1.7,0.1-3.7-1H301.1z"/>
</g>
<circle class="st1" cx="196" cy="147.4" r="21"/>
<text transform="matrix(1 0 0 1 184.2132 158.8321)" class="st2 st3 st4">4</text>
</svg>
