<?xml version="1.0" encoding="utf-8"?>
<!-- Generator: Adobe Illustrator 22.1.0, SVG Export Plug-In . SVG Version: 6.00 Build 0)  -->
<svg version="1.1" id="Layer_1" xmlns="http://www.w3.org/2000/svg" xmlns:xlink="http://www.w3.org/1999/xlink" x="0px" y="0px"
	 viewBox="0 0 400 400" style="enable-background:new 0 0 400 400;" xml:space="preserve">
<style type="text/css">
	.st0{fill:#EFEFEF;stroke:#000000;stroke-miterlimit:10;}
	.st1{fill:#018FD3;stroke:#FFFFFF;stroke-miterlimit:10;}
	.st2{fill:#FFFFFF;}
	.st3{font-family:'PetangueDEMO';}
	.st4{font-size:50px;}
</style>
<g id="Australia">
	<path class="st0" d="M81.8,286.1h6.5v4.6h7.2v-3.9l6.5-1.3V279l11.1,2.9h17.7V273l17.7-7.2l40-3.3l25.5,22.3l9.8,5.9l11.8,15.7
		l14.4,8.5l2.6,5.2H286l6.6-11.1H305v-27.5l13.1-3.9V271l13.1-3.9v-39.3l-5.2-9.2V201h-9.8l-20.3-34.7l-16.3-11.8l-18.3-8.5
		l0.7-22.3h-7.2l-3.9-9.2l0.1-6.4l-11.8-3.9c0,0-5.4,18.2-5.4,20.2s-3.9,7.9-3.9,7.9v12.4l-7.2-0.6l-16-13.1v-12.4l5.6-5.2v-5.9
		l-5.6-0.6l6,1.4l-3.6-3.9c0,0-9.2,2.6-17.7,0c-5.3-1.5-11-1.5-16.4,0l-15.2,18.2h-15.1l-3.9-5.2l-7.8,0.7l-10.5,13.8l-7.8,7.9
		l3.3,10.5l6.6,4.6l-3.9,6.6H110c0,0-14.4,1.3-28.2,15.7c-6.7,10-5.9,24.9-5.9,24.9l-7.2,0.6v11.8l5.2,5.2c0,0,4.6,22.3,9.8,34
		l2.9,14.3l-0.4,6.2l-4.4,4.4V286.1z"/>
	<path class="st0" d="M238.6,77.9c0,0-0.2-2.3-0.3-4.9s-0.1-5.5,0.3-6.6c0.7-2.2,0-12.2,0-12.2l-3.6-5V37c0-2.1-3.3-7.9,1.9-6.5
		s21.8,10.8,21.8,10.8v7.9h10.1l6.5,4.9v10.2c0,0-5,1.4-4.3,3.6s4.3,5,7.2,5s-1.4-7.2,5.7,5s7.2,18.7,7.2,18.7h-5.8c0,0,0-1.4-2.2,0
		S268,85.1,268,85.1s-7.5-5-5.5-7.2s-12.4-5-12.4-5L238.6,77.9z"/>
	<path class="st0" d="M284.3,360.7c-1.5,0-2.7-1.5-2.7-3.4c0-2,0.3-4,0.8-6c0.5-1.5,2.4-2.7,4.3-2.7c2,0,3.7,1.2,4.5,3
		c0.5,1.6,1.6,3,3,4c1.2,0.6,2.5,1,3.8,1.2c1,0.1,1.5,3.6,1.2,7.9l0.7,1l0.7,1c-0.9,1.1-2.1,1.9-3.5,2.2c-1.5,0.4-3,0.7-4.5,0.8
		c-1.1-0.1-2.1-0.7-2.8-1.5c-0.7-1-1.3-2-1.7-3.2c-0.2-1.3,0.1-2.6,0.8-3.7l-2.3-0.3L284.3,360.7z"/>
</g>
<circle class="st1" cx="206.3" cy="199" r="21"/>
<text transform="matrix(1 0 0 1 200 211.0001)" class="st2 st3 st4">1</text>
</svg>
