<?xml version="1.0" encoding="utf-8"?>
<!-- Generator: Adobe Illustrator 22.1.0, SVG Export Plug-In . SVG Version: 6.00 Build 0)  -->
<svg version="1.1" id="Layer_1" xmlns="http://www.w3.org/2000/svg" xmlns:xlink="http://www.w3.org/1999/xlink" x="0px" y="0px"
	 viewBox="0 0 461.5 165.5" style="enable-background:new 0 0 461.5 165.5;" xml:space="preserve">
<style type="text/css">
	.st0{fill:#FFFFFF;}
	.st1{fill:#018FD3;}
	.st2{enable-background:new    ;}
</style>
<g id="Arrow">
	<polygon class="st0" points="192.9,72.2 192.9,84.2 251.9,84.2 241.9,92.5 250.7,101 275.4,78 246.2,55.5 240.8,65 250.7,73.2 	"/>
</g>
<g id="Calendar2">
	<rect id="Bottom_1_" x="296.3" y="45.8" class="st0" width="165.2" height="119.8"/>
	<g id="Top_1_">
		<rect x="296.3" class="st1" width="165.2" height="45.8"/>
	</g>
	<g id="July" class="st2">
		<path class="st0" d="M336,8.5h7.3v20.3c0,9.2-4.4,12.4-11.5,12.4c-1.7,0-3.9-0.3-5.3-0.8l0.8-5.9c1,0.3,2.3,0.6,3.7,0.6
			c3.1,0,5-1.4,5-6.4V8.5z"/>
		<path class="st0" d="M356.6,8.5v18.5c0,5.5,2.1,8.4,5.8,8.4c3.8,0,5.9-2.7,5.9-8.4V8.5h7.3v18.1c0,9.9-5,14.7-13.4,14.7
			c-8.1,0-12.9-4.5-12.9-14.8v-18H356.6z"/>
		<path class="st0" d="M381.9,8.5h7.3v26.1H402v6.1h-20.1V8.5z"/>
		<path class="st0" d="M409.4,40.7V27.5l-10.2-19h8.3l3.3,7.7c1,2.3,1.7,4.1,2.5,6.2h0.1c0.7-2,1.5-3.9,2.4-6.2l3.2-7.7h8.2
			l-10.6,18.8v13.4H409.4z"/>
	</g>
	<g id="_x31_5" class="st2">
		<path d="M337.2,83.5H337l-16.1,7.7l-3.3-14.8l22.4-10.4h16.4v84.5h-19.1V83.5z"/>
		<path d="M440.6,82.2h-32.8l-1.8,13c1.8-0.3,3.4-0.3,5.5-0.3c8.1,0,16.2,1.8,22.2,6.1c6.4,4.3,10.3,11.3,10.3,21.2
			c0,15.7-13.5,29.6-36.3,29.6c-10.3,0-18.9-2.3-23.5-4.8l3.5-14.8c3.8,1.8,11.4,4.2,19.1,4.2c8.2,0,16.9-3.9,16.9-12.9
			c0-8.7-6.9-14-23.8-14c-4.7,0-7.9,0.3-11.4,0.8l5.6-44.3h46.5V82.2z"/>
	</g>
</g>
<g id="Calendar1">
	<rect id="Bottom" y="45.8" class="st0" width="165.2" height="119.8"/>
	<g id="Top">
		<rect class="st1" width="165.2" height="45.8"/>
	</g>
	<g id="June" class="st2">
		<path class="st0" d="M34,8.5h7.3v20.3c0,9.2-4.4,12.4-11.5,12.4c-1.7,0-3.9-0.3-5.3-0.8l0.8-5.9c1,0.3,2.3,0.6,3.7,0.6
			c3.1,0,5-1.4,5-6.4V8.5z"/>
		<path class="st0" d="M54.6,8.5v18.5c0,5.5,2.1,8.4,5.8,8.4c3.8,0,5.9-2.7,5.9-8.4V8.5h7.3v18.1c0,9.9-5,14.7-13.4,14.7
			c-8.1,0-12.9-4.5-12.9-14.8v-18H54.6z"/>
		<path class="st0" d="M79.9,40.7V8.5h8.5l6.7,11.8c1.9,3.4,3.8,7.4,5.3,11h0.1c-0.5-4.2-0.6-8.6-0.6-13.4V8.5h6.7v32.2h-7.6
			L92,28.3c-1.9-3.4-4-7.6-5.6-11.4l-0.1,0c0.2,4.2,0.3,8.8,0.3,14v9.7H79.9z"/>
		<path class="st0" d="M132,27.1h-11.8v7.6h13.2v6h-20.5V8.5h19.9v6h-12.6v6.7H132V27.1z"/>
	</g>
	<g id="_x31_4" class="st2">
		<path d="M40.2,83.5H40l-16.1,7.7l-3.3-14.8l22.4-10.4h16.4v84.5H40.2V83.5z"/>
		<path d="M122.1,150.4v-20.2H84.7v-12.9l32-51.5h24.2v49.5H151v14.8h-10.1v20.2H122.1z M122.1,115.4V96.7c0-5.1,0.3-10.3,0.6-15.7
			h-0.5c-2.7,5.5-4.9,10.4-7.8,15.7l-11.3,18.5v0.3H122.1z"/>
	</g>
</g>
</svg>
