<?xml version="1.0" encoding="utf-8"?>
<!-- Generator: Adobe Illustrator 22.1.0, SVG Export Plug-In . SVG Version: 6.00 Build 0)  -->
<svg version="1.1" id="Layer_1" xmlns="http://www.w3.org/2000/svg" xmlns:xlink="http://www.w3.org/1999/xlink" x="0px" y="0px"
	 viewBox="0 0 800 400" style="enable-background:new 0 0 800 400;" xml:space="preserve">
<style type="text/css">
	.st0{fill:#1F1F1F;stroke:#FFFFFF;stroke-miterlimit:10;}
	.st1{fill:#E1000E;}
	.st2{fill:#FFFFFF;}
	.st3{font-family:'MyriadPro-Regular';}
	.st4{font-size:12px;}
	.st5{font-size:15px;}
</style>
<g id="Chart">
	<rect x="70.3" y="17" class="st0" width="692.7" height="328"/>
	<line class="st0" x1="66.4" y1="308.5" x2="763" y2="308.5"/>
	<line class="st0" x1="66.4" y1="272.5" x2="763" y2="272.5"/>
	<line class="st0" x1="66.4" y1="235.5" x2="763" y2="235.5"/>
	<line class="st0" x1="66.4" y1="199" x2="763" y2="199"/>
	<line class="st0" x1="66.4" y1="162.5" x2="763" y2="162.5"/>
	<line class="st0" x1="66.4" y1="126.5" x2="763" y2="126.5"/>
	<line class="st0" x1="66.4" y1="89" x2="763" y2="89"/>
	<line class="st0" x1="66.4" y1="53" x2="763" y2="53"/>
	<line class="st0" x1="70.3" y1="345" x2="66.4" y2="345"/>
	<line class="st0" x1="70.3" y1="348.5" x2="70.3" y2="344"/>
	<line class="st0" x1="128" y1="345" x2="128" y2="348.5"/>
	<line class="st0" x1="186" y1="345" x2="186" y2="348.5"/>
	<line class="st0" x1="242.8" y1="345" x2="243" y2="348.5"/>
	<line class="st0" x1="301" y1="345" x2="301.2" y2="348"/>
	<line class="st0" x1="358.8" y1="345" x2="358.8" y2="348.3"/>
	<line class="st0" x1="416.7" y1="345" x2="416.7" y2="348.3"/>
	<line class="st0" x1="474" y1="345" x2="474" y2="348.3"/>
	<line class="st0" x1="532" y1="345" x2="532" y2="348.3"/>
	<line class="st0" x1="589.7" y1="345" x2="589.7" y2="348.3"/>
	<line class="st0" x1="647.8" y1="345" x2="647.8" y2="348.5"/>
	<line class="st0" x1="705.3" y1="345" x2="705.3" y2="348.5"/>
	<line class="st0" x1="763" y1="345" x2="763" y2="348.5"/>
	<line class="st0" x1="70.3" y1="17" x2="66.4" y2="17"/>
</g>
<g id="Bar_Lines">
	<rect id="bar_x5F_12" x="722" y="184" class="st1" width="24" height="160"/>
	<rect id="bar_x5F_11" x="664.7" y="186.1" class="st1" width="24" height="157.9"/>
	<rect id="bar_x5F_10" x="606.7" y="190.9" class="st1" width="24" height="153.1"/>
	<rect id="bar_x5F_9" x="548.7" y="193.4" class="st1" width="24" height="150.6"/>
	<rect id="bar_x5F_8" x="491.3" y="220.9" class="st1" width="24" height="123.1"/>
	<rect id="bar_x5F_7" x="433.3" y="224.7" class="st1" width="24" height="119.3"/>
	<rect id="bar_x5F_6" x="376" y="188.6" class="st1" width="24" height="155.4"/>
	<rect id="bar_x5F_5" x="318" y="186.9" class="st1" width="24" height="157.1"/>
	<rect id="bar_x5F_4" x="261" y="182.9" class="st1" width="24" height="161.1"/>
	<rect id="bar_x5F_3" x="202.3" y="110.3" class="st1" width="24" height="233.7"/>
	<rect id="bar_x5F_2" x="144.3" y="182.9" class="st1" width="24" height="161.1"/>
	<rect id="bar_x5F_1" x="87" y="59.7" class="st1" width="24" height="284.3"/>
</g>
<g id="Text">
	<text transform="matrix(1 0 0 1 57.6667 348.4772)" class="st2 st3 st4">0</text>
	<text transform="matrix(1 0 0 1 31.3164 311.8105)" class="st2 st3 st4">10,000</text>
	<text transform="matrix(1 0 0 1 31.3164 276.0605)" class="st2 st3 st4">20,000</text>
	<text transform="matrix(1 0 0 1 31.3164 239.3105)" class="st2 st3 st4">30,000</text>
	<text transform="matrix(1 0 0 1 31.3164 202.8333)" class="st2 st3 st4">40,000</text>
	<text transform="matrix(1 0 0 1 31.3164 165.8219)" class="st2 st3 st4">50,000</text>
	<text transform="matrix(1 0 0 1 31.3164 130.0719)" class="st2 st3 st4">60,000</text>
	<text transform="matrix(1 0 0 1 31.3164 93.3219)" class="st2 st3 st4">70,000</text>
	<text transform="matrix(1 0 0 1 31.3164 56.8446)" class="st2 st3 st4">80,000</text>
	<text transform="matrix(1 0 0 1 31.3164 21.178)" class="st2 st3 st4">90,000</text>
	<text transform="matrix(4.489659e-11 -1 1 4.489659e-11 102.5 339.5)" class="st2 st3 st4">Luzhniki Stadium </text>
	<text transform="matrix(4.489659e-11 -1 1 4.489659e-11 159.5 339.5)" class="st2 st3 st4">Otkritie Arena</text>
	<text transform="matrix(4.489659e-11 -1 1 4.489659e-11 218.1665 339.5)" class="st2 st3 st4">Krestovsky Stadium </text>
	<text transform="matrix(4.489659e-11 -1 1 4.489659e-11 276.6665 339.5)" class="st2 st3 st4">Fisht Olympic Stadium </text>
	<text transform="matrix(4.489659e-11 -1 1 4.489659e-11 333.6665 339.5)" class="st2 st3 st4">Rostov Arena </text>
	<text transform="matrix(4.489659e-11 -1 1 4.489659e-11 392 339.5)" class="st2 st3 st4">Kazan Arena</text>
	<text transform="matrix(4.489659e-11 -1 1 4.489659e-11 448.834 339.5)" class="st2 st3 st4">Central Stadium </text>
	<text transform="matrix(4.489659e-11 -1 1 4.489659e-11 506.834 339.5)" class="st2 st3 st4">Kaliningrad Stadium </text>
	<text transform="matrix(4.489659e-11 -1 1 4.489659e-11 563.834 339.5)" class="st2 st3 st4">Mordovia Arena</text>
	<text transform="matrix(4.489659e-11 -1 1 4.489659e-11 621.834 339.5)" class="st2 st3 st4">Samara Arena</text>
	<text transform="matrix(4.489659e-11 -1 1 4.489659e-11 680.834 339.5)" class="st2 st3 st4">Nizhny Novgorod Stadium</text>
	<text transform="matrix(4.489659e-11 -1 1 4.489659e-11 737.833 339.5)" class="st2 st3 st4">Volgograd Arena</text>
	<text transform="matrix(6.123234e-17 -1 1 6.123234e-17 18.8594 226.9922)" class="st1 st3 st5">Capacity</text>
</g>
</svg>
