<?xml version="1.0" encoding="utf-8"?>
<!-- Generator: Adobe Illustrator 22.1.0, SVG Export Plug-In . SVG Version: 6.00 Build 0)  -->
<svg version="1.1" id="Croatia" xmlns="http://www.w3.org/2000/svg" xmlns:xlink="http://www.w3.org/1999/xlink" x="0px" y="0px"
	 viewBox="0 0 900 600" style="enable-background:new 0 0 900 600;" xml:space="preserve">
<style type="text/css">
	.st0{fill:#FF0000;}
	.st1{fill:#FFFFFF;}
	.st2{fill:#171796;}
	.st3{fill:#0093DD;}
</style>
<rect class="st0" width="900" height="200"/>
<rect y="200" class="st1" width="900" height="200"/>
<rect y="400" class="st2" width="900" height="200"/>
<g>
	<g>
		<g>
			<path class="st0" d="M445,455.2L445,455.2c64.2,0,116.6-52.5,116.6-116.6V200H328.4v138.6C328.4,402.7,380.9,455.2,445,455.2
				L445,455.2z"/>
			<path class="st1" d="M445,453.3L445,453.3c62.9,0,114.4-51.5,114.4-114.4V202.2H330.6v136.7C330.6,401.8,382.1,453.3,445,453.3z"
				/>
		</g>
		<g>
			<path class="st0" d="M557.9,200l28-63.4l-21.5-34.7l-34.6,12.8l-24.3-27.8l-32,18.3L445,81.9l-28.5,23.4l-32-18.3l-24.3,27.8
				L325.6,102l-21.5,34.7L332,200c34.5-15.7,72.7-24.5,113-24.5C485.2,175.4,523.5,184.2,557.9,200L557.9,200z"/>
			<path class="st1" d="M557.5,198.5l27.3-61.9L564,103.1l-34.5,12.8l-24.2-27.7l-31.9,18.3L445,83.2l-28.4,23.3l-31.9-18.3
				l-24.2,27.7L326,103.1l-20.8,33.6l27.3,61.9C366.9,183,405,174.3,445,174.3S523.1,183,557.5,198.5L557.5,198.5z"/>
		</g>
	</g>
	<path class="st3" d="M556.2,195.6l25.9-58.8L563,106l-34.1,12.6l-15.8,62.1C528,184.5,542.4,189.5,556.2,195.6L556.2,195.6z"/>
	<path class="st2" d="M416.9,109.3L416.9,109.3l-31.7-18.1l-23.9,27.4l15.8,62.1c14.6-3.7,29.7-6.3,45.1-7.5L416.9,109.3
		L416.9,109.3z"/>
	<path class="st2" d="M528.9,118.6L528.9,118.6l-24.1-27.4l-31.5,18.1l-5.3,63.9c15.4,1.3,30.5,3.8,45.1,7.6L528.9,118.6
		L528.9,118.6z"/>
	<path class="st3" d="M361.3,118.6L361.3,118.6L327,106l-19.1,30.9l7.3,16.7l18.6,42.1c13.9-6.1,28.3-11.1,43.2-15L361.3,118.6
		L361.3,118.6z"/>
	<path class="st3" d="M473.3,109.3L473.3,109.3l-28.3-23l-28.1,23l5.3,63.9c7.5-0.6,15.1-1,22.8-1s15.4,0.3,22.9,1L473.3,109.3
		L473.3,109.3z"/>
	<polygon class="st0" points="378.9,206.5 334.9,206.5 334.9,254.9 378.9,254.9 	"/>
	<polygon class="st0" points="378.9,303.2 422.9,303.2 422.9,254.9 378.9,254.9 	"/>
	<path class="st0" d="M334.9,338.6c0,4.4,0.3,8.7,0.8,13H379v-48.4h-44v35.4H334.9z"/>
	<polygon class="st0" points="467,303.2 422.9,303.2 422.9,351.6 467,351.6 	"/>
	<polygon class="st0" points="467,400 511,400 511,351.6 467,351.6 	"/>
	<path class="st0" d="M511,426.5c9.8-7.4,18.3-16.3,25.1-26.5H511V426.5z"/>
	<polygon class="st0" points="378.9,400 422.9,400 422.9,351.6 378.9,351.6 	"/>
	<path class="st0" d="M353.7,400c6.9,10.2,15.4,19.1,25.2,26.5V400H353.7z"/>
	<path class="st0" d="M452.6,448.4c4.9-0.3,9.7-1,14.3-2V400h-44v46.4c4.7,1,9.4,1.6,14.3,1.9C442.4,448.7,447.5,448.7,452.6,448.4
		L452.6,448.4z"/>
	<path class="st0" d="M554.2,351.6c0.5-4.3,0.8-8.6,0.8-13v-35.3h-44v48.4L554.2,351.6L554.2,351.6z"/>
	<polygon class="st0" points="467,303.2 511,303.2 511,254.9 467,254.9 	"/>
	<polygon class="st0" points="467,206.5 422.9,206.5 422.9,254.9 467,254.9 	"/>
	<polygon class="st0" points="555,254.9 555,206.5 511,206.5 511,254.9 	"/>
</g>
</svg>
