<?xml version="1.0" encoding="utf-8"?>
<!-- Generator: Adobe Illustrator 22.1.0, SVG Export Plug-In . SVG Version: 6.00 Build 0)  -->
<svg version="1.1" id="Layer_1" xmlns="http://www.w3.org/2000/svg" xmlns:xlink="http://www.w3.org/1999/xlink" x="0px" y="0px"
	 viewBox="0 0 400 400" style="enable-background:new 0 0 400 400;" xml:space="preserve">
<style type="text/css">
	.st0{fill:#EFEFEF;stroke:#231F20;stroke-miterlimit:10;}
	.st1{fill:#018FD3;stroke:#FFFFFF;stroke-miterlimit:10;}
	.st2{fill:#FFFFFF;}
	.st3{font-family:'PetangueDEMO';}
	.st4{font-size:42px;}
</style>
<g id="Europe">
	<path class="st0" d="M92,241.2c4.9,3.5,4.3,4.3,3.8,9.8s0.3,6.3-6,6.5c-4.2,0.1-23.7-3.8-24,2c-0.8-0.3-2.4,0-3.1-0.3
		c-2,5.1,2.1,9.5,0.2,14.6c-1.9,5.3-4.3,6.6-1.8,12.5c2.8,6.6,4.2,0.8,8.7,4c1.9,1.4,1,5.8,3.4,6.8s4.6-2.3,6.7-3.1
		c5.5-2.2,8.4-0.6,13.4-4.5c4.9-3.8,7-4.4,7.7-10.6c0.9-8.3,5.1-6.5,9.8-11.7c3.4-3.7,1.3-7.7,7.9-7.7c3.1,0,5.1,1.5,8.4,0.4
		c3.6-1.2,5.4-4.4,8.3-6.4c5.1-3.4,12.4,0.2,8.3,6.7c5.3,4.6,13.3,7.2,19.3,11c5,3.2,10.3,11.5,1.7,13.7c-3.9,1-7.4-0.4-11.3,1.6
		c1.1,1.9,2.5,2.6,4.3,3.7c0.7,0.5,2.1-0.3,3,0.3c0.7,0.4,1.7,2.9,2.3,2.9c4.1,0.4,1.4-5.9,4.6-7.1c1.1-0.4,2.2,2.4,4.3,1.1
		c0.8-0.5,1.8-4,2.1-4.9s2-1.1,2-2.3c0-0.7-1.2-1.9-1.2-2c0.2-1.3-3-2.7,1.1-3c3.8,2.8,4.2-0.8,2.5-3.6c-2.2-3.5-6.9-3.4-9.9-5.7
		c-2.5-1.9-3.8-5-6.2-7.1s-6.1-3.1-7.5-6c-1.9-3.9-0.4-5.7,3.6-4.3c3.5,1.2,6.5,6,9.4,8.3c3.9,3,8.4,5.3,13.1,6.8
		c5.6,1.8,5.3,1.3,5.3,6.7c0,6.4,2.5,4.4,5.6,9.3c1.5,2.4-0.1,7.8,4.5,6.1c-10.8,4,5.3,11.9,4.1,3.5c-1.8-0.3-1.2-0.8-2.3-1.6
		c3.1-3.5,11.3,2.9,6.7-3.7c-1.4-2-2.7-1.6-3.9-4.1c-0.9-1.8-0.5-4.5-1.6-6.5c1.1,0.5,2.6,0.7,3.5,1.5c-0.2-7.1,7.1-1.7,10.9-1.3
		c5.2,0.5,7.8-1.3,11.1-4c-3.5-1.4-3-2.9-3.5-6.1c-0.1-0.4-0.3-3.5-0.3-3.6c0.3-1,1.6-2.2,1.7-2.7c0.5-2.4,1.3-4.8,2.4-7
		c1.7-2.9,3.9-3.8,4.4-7.6c3.6,0,6.8,2.3,10.4,2.3c4.4,0,12.2-2.3,16.1-4.1c1.6-0.8,5.2-5.6,6.5-1.1c1.1,4.2-6.6,3.4-4.9,7.9
		c0.5,1.3,7.5,5.5,8.9,6c1.9,0.6,4.5-0.6,6.5-0.3c2.8,0.5,5.6,2.1,8.3,3c4.7,1.6,8.2,3.6,12.5,5.8c1.3,0.7,9.7,5.3,10.8,5.2
		c5.8-0.8,1.1-8.8,0.4-11.8c-0.9-3.7-0.3-7.7,1.7-11c-3.6-1.9-1.6-3.3-2.6-5.9c-1-2.9-1.7-3.1-4.1-5.3c-3-2.7-8-9.2-1.9-11.8
		c3.3,5.6,5.5-1.7,8-3.4c4-2.7,8.4-0.8,12.6,0.3s9.7,3.2,13-0.8s-0.2-8,0.2-12.1c0.4-4.4,4.9-7.3,4.6-11.9
		c-0.2-3.7-3.4-7.8-4.5-11.3c-2.8-8.7-7-18.1-7.8-27.2c-0.5-5.7,0.3-10.3,5.6-12.7c5-2.2,8.3-2.1,7.3-9c-10.5-2.7-21-5.1-31-9
		c1,4.5,9.1,4.3,9.8,7.6c1.1,5.4-6.5,1.5-8.2,0.5c-1,1.8-1.8,1.4-3.7,1.6c-1,0.1-1.8-1.4-3-1.2c-0.6,0.1-1.4,1.4-1.8,1.4
		c-2.4,0.2-1.2,1.3-3.8,0.3c-1.5-0.6-2.1-1.4-2-3.3c-2.2,0.5-2.2,2.3-4.4,2.8c-1.5,0.4-3.5-1.3-5.3-0.9c-3.6,0.8-6.2,4.8-9.4,6.4
		c-3.8,1.8-8,2-6.2-2.7c0.7-2,4.9,1,2.1-3.2c-1.5-2.3-6.9-2.7-9.3-2.4c-0.3,0.7-0.6,1.5-0.8,2.3c4.5,1.3,0.9,2.8,1.2,4.4
		c0.4,2.2,1.4,4.2,2.8,5.8c-1.8,2-6,2.2-6.5-0.7c-2.5-0.3-10.1,3.3-11.9,5.2c1.3,1.3,3.2,2.1,4.2,3.7c-4.5,4-7.5-3.4-11-3.2
		c-0.3,2.2,1.2,4.1,2.8,5.3c-2.2,0.8-8.2-0.5-9.7-2.6c-1.9-2.6,0.5-4.9-3.2-7.4c-1.3-0.9-10.4-3.1-4.4-4.2c5.5-1,10.1,7.1,15.9,6.8
		c4.6-0.3,7.2-5,11.9-5.3c-3.2-3.8-11.1-5.7-15.8-7.4c-7.9-2.9-18.5-6-26.9-6.5c1.8-10.3-35.3,0.4-38.9,1c-3.5,2.2-4.8,5.3-7.6,8.1
		c-3.2,3.3-8,3.7-11.3,6.7c-3.1,2.8-4.1,7.1-7.5,9.9c-3.1,2.3-6.4,4.4-9.8,6.2c-7.7,4.4-14.7,7.9-9.5,18.2c2,3.9,5.9,8.2,10.5,6.3
		c3.6-1.5,6.2-9.4,11.1-6.8c5.9,3.1,1.6,19.3,12.5,18.3c2.2-0.2,9.4-4,10.4-5.9c2-3.8-1-6,2.9-9.6c4.3-4,4.5-2,1-7.3
		c-2.9-4.4-2-5.1,0.7-9.6s14-19.2,19.7-17.3c7.1,2.4,1,9.5-2.1,11.7c-4.8,3.4-6.9,5.9-4.1,12.1c1.8,3.8,4,5.3,8.3,5.7
		c5,0.4,8.3-3.4,12.9-3.3c2.6,0,5.2,2,7.2,3.4c-4.7,2.8-18.6-3.1-20,4c4.9,1.5,3,8.7-1.3,9.4c-2.7,0.5-7.8-7.4-9-0.5
		c-0.4,2.4,2.6,4.7,2.6,7.1c0.1,4.7-0.5,1.5-4,3.4c-1.7,0.9-3.1,3.6-5.1,3.9c-2.8,0.4-4.1-2.3-6.7-2.5c-3-0.2-5,2-7.7,2.6
		c-2.5,0.5-5.3-1.8-5.7,2c-3.9-0.9-2.6-4.4-7-3.8c-2.7,0.4-5.1,4.8-8.7,2.2c-3-2.2-0.6-6.2,0.1-7.8c0.9-2.1,4.6-3.3-0.7-5
		c5.3-2.4,0.2-6-3.7-4c-3.5,1.9-3.3,6.2-2.4,9.7s3.5,5.2,0.6,8.7c-2.5,3-7.3,2.7-11.2,3.6c-5.6,1.3-7.6,2.5-5.5,8
		c-4.4,0-7.6,0.9-11,3.7c-2.7,2.3-3.5,6.8-7.7,5c-1.2,2.8-4.5,3.3-5.1,0c-3.2-1.5-3.2,1.8-2.5,4c-3.6,0.1-7.3,2.6-11.1,3
		c0.2,3,3.8,2.9,6.1,4.3c0.9,0.5,2.9,1,3.3,2.1C92.8,238.6,92.9,241.9,92,241.2z"/>
	<path class="st0" d="M71.2,214.7c-3.5,2.7-10.7,4.7-8.1-2c0.6-1.7,3.2-2.2,3.5-4s-2.3-2.3-2-4c1.1-6.5,18.8-11.3,12.8-1.9
		c4.7,0.7,5.6,3.8,2.1,7.2c-0.8,0.7-3.3,2-4.2,2.7c-1.9,1.5-0.3,3.8-4.9,2.9"/>
	<path class="st0" d="M90.4,216.3c-3.2,1.7-5.2-0.4-4.7-3.5c0.5-2.8,5.1-3.8,1.5-6.4c1.4-2.2,3.9-1.5,5.6-0.5
		c0.6-2.6-3.7-6.1-5.2-7.4c-1.8-1.6-2.7,1.4-3.3-2.2c-0.4-2.4,2.3-2.7,2-4.4c-0.2-1.4-2.9-1.9-3.3-3.9c0-0.1,1.6-4.8,1.7-4.9
		c2.3-2.5,7.4-2.4,10.1-4c0.9,2.9-2.4,1.8-2.4,3.8c-0.1,3.5,1.1,1.5,3.1,3.1c1.8,1.4,3.7,0.5,3.4,3.7c-0.2,2.2-3.5,2.5-3.9,4.1
		c-0.8,3.3,5.5,2.3,6.8,6.2c0.6,1.7-1,2.9,0,5c0.8,1.2,1.9,2.3,3.1,3.1c4.1,3,6,3.5,1.5,8.7c0.2,0.5,0.5,1.1,0.7,1.6
		c-3.5,3.2-9.7,0.6-13.9,1.5s-8.6,2.7-13,2c2.9-2.9,6.6-4.9,10.6-5.6"/>
	<path class="st0" d="M283.9,119.4c3.8,2.1,8,5.9,12.7,4.5c7.1-2.1-1.4-3.3-2.2-7.4c-1.6-8.4,10.6-12,16.4-13.1
		c4-0.7,10.9-0.4,14-3.3c-3.4-3.4-7.2,0.4-10.7,1.1c-3.8,0.8-8-0.1-11.8,0.2c-8.8,0.7-14.3,5.3-19.8,11.8c-4.7,5.5-0.6,5.8,4.6,6.5"
		/>
	<path class="st0" d="M139.1,261.3c-1.2,3.1-1,12,2.6,6.1c2.2-3.7-3.1-9.5-3.4-4.1"/>
	<path class="st0" d="M140.7,276.9c-5.6,0.5-2.1,10.3,1.6,4.1c4.5-7.3-5.9-9.2-2.9-1.7"/>
	<path class="st0" d="M244.2,246.6c-6.7-1.1-1.5,4.4,0.1,5.7c2.1-0.2,8.8-1.2,10.2-2.8c-1.4-1.9-2.8-0.1-3.7-0.7
		c-0.7,0.1-1.3,0-2-0.1c-0.4-0.2,0.2-1.9-0.1-2.1c-1.9-0.8-4.8-2.9-6.1,0.4"/>
	<path class="st0" d="M175.1,184.8c6.1-4.7,1,4.4,0.8,5.7c-0.5,0-1,0-1.5,0c-0.8-1.7-0.5-3.8,0.7-5.2"/>
	<path class="st0" d="M176.3,172.6c0.9,0.6,1.7,1.4,2.4,2.2c-1.8,1.9-3.1,0.1-3.2-2.2"/>
	<path class="st0" d="M182.4,156.2c1.5-1.1,2.8-2.6,4.5-3.2c1.1,2.6-1.5,4.6-4,4.4c-0.1-0.5-0.1-1.1-0.1-1.6"/>
	<path class="st0" d="M274.9,129.6c4.4-2.2,5.4,3,0.1,1.6v-1.1c1-0.5,2.1-0.8,3.2-0.9"/>
</g>
<circle class="st1" cx="215.7" cy="214.2" r="21"/>
<text transform="matrix(1 0 0 1 200.6859 225.1121)" class="st2 st3 st4">14</text>
</svg>
