<?xml version="1.0" encoding="utf-8"?>
<!-- Generator: Adobe Illustrator 22.1.0, SVG Export Plug-In . SVG Version: 6.00 Build 0)  -->
<svg version="1.1" id="main_x5F_na" xmlns="http://www.w3.org/2000/svg" xmlns:xlink="http://www.w3.org/1999/xlink" x="0px"
	 y="0px" viewBox="0 0 400 400" style="enable-background:new 0 0 400 400;" xml:space="preserve">
<style type="text/css">
	.st0{fill:#EFEFEF;stroke:#000000;stroke-miterlimit:10;}
	.st1{fill:#018FD3;stroke:#FFFFFF;stroke-miterlimit:10;}
	.st2{fill:#FFFFFF;}
	.st3{font-family:'PetangueDEMO';}
	.st4{font-size:50px;}
</style>
<g id="na">
	<path class="st0" d="M201.1,308.7L190.8,288c0,0-14.7-22.4-18.1-25s-6.9-31-4.3-38.8l2.6-7.8h-12.1v-8.6l-6-3.5l-4.3-10.3l-7.8-9.5
		l-4.3-8.6l-3.5,6v-9.5h-9.5l-12.1-9.5H83.9L78,173.2l5,3.8v3.4h-5.1l-2.1-4.7h-1.7l-3.4,0.8v4.2l-4.2,0.4l-4.7,0.8v3.4l-3-3.8
		l5.1-3.8l3-5.5l-2.1-4.7h-3.4l-2.5-4.8h-3.4l-5.1-2v-5.1h-2.5l2.1-3.4l5.9-3l2.5-2.1v-3H47.9l-3.4-5.5l-2.5-3.4h16.1l-1.3-2.1
		l-3.4-3.8l2.1-6.8l3.8-5.5l5.5-3.4h3.8l3-2.1H78l7.6,2.1l20.3,0.4l0.8,2.1h5.9v2.1h8.9l3.3,2.5l1.7,1.7l8-0.4l0.4,2.5h6.3l5.1-3.8
		l-0.5-1.2l1.8,0.2l0.5,2.7h4.5l0.2-1.6l3.8-0.9l0.2-3.6l4.9-0.2l1.8,1.8l2.9-0.2l2,2.2l9.2,0.5l0.7,2h5.5l0.2,2.9l5.4-1.1l1.3-6
		l4.9-0.4l0.7-2.9l-2-2.2l-6.3,0.7l-1.1-3l-2-2.2l-1.5-2v-2.4H180l-1.1,1.1l0.4,4.2l-2.2,1.3h-4.9L168,108l-2.5-1.8l-1.1-2.4h2.9
		l1.8-3.8l0.9-2c0,0,5.4-1.8,6-1.8h9.3l2.9,1.6l1.1,0.9l-1.5,2.4c0,0,0,2,0.5,2h4.3l16,0.9l2.5,5.1l2.5-1.6v-2.9l3.6-0.5v-3.4
		l2.9,0.4l1.3,8l7.4,7.3v6.9l-1.5,2l-1.8,1.3l-1.3-0.9l-2.9-1.1h-10.4l-2.2,3.4l-0.7,0.9l-1.1,0.5c0,0-2.5,0.5-2.7,0s-2-1.6-2-1.6
		l-0.7-1.1l-0.9-0.5h-4l-1.3,1.1l-4.3,2.2c0,0-0.7,2.5,0.2,2.5h8.5c0,0,0.2-2.5,0.9-2.5s3.1,2.7,3.1,2.7l2.7,2.5l1.1,0.7l1.1-3.8
		l3.8-2c0,0,2.7-0.4,4.2-0.4h6c0,0-0.5-2,0-2s4.4,1.1,4.4,1.1s-0.5,0.2,0.2,1.8s4,2,4,2l0.7-2.4l6.4-0.7l2.2,0.2v-2l-2-0.4l-0.9-0.9
		c0,0,0.4-1.6,0.9-2s2.9-1.5,2.9-1.5c0.6,0.3,1.2,0.6,1.6,1.1c0.7,0.7,1.5,0.9,1.5,2v3.4l4.2-0.2l2-1.8l0.7-2.4l-2.9-1.8l-2.2-4.5
		v-9.1l-0.7-6.7l4.4-1.8c0,0,6.5-1.6,7.1-1.6s2.5,2.5,2.5,2.5v2l-4.5,1.6l-3.3,1.7l-2,2.2l1.3,2.1l2.7,0.7v3.8l3.6,5.4l0.7,2.9
		l7.4,0.4l3.4,5.1l3.1-0.5c0,0,1.8,0.2,1.8-0.7s-1.1-2.2,0-2.2s2.9-2.2,2.9-2.7c-0.2-1-0.4-2.1-0.7-3.1l-2.5-0.4l-1.3-2.5l-2.9-0.9
		c0,0-1.1,0.9-1.6-1.3c-0.3-1.3-1.1-2.5-2.2-3.3c-0.1-1-0.1-1.9,0-2.9c0.2-0.5,0-4.3,0.5-5.1c0.5-0.9,1-1.8,1.5-2.7h3.1l0.4,3.3h3
		l-0.2,4.2c0,0,0,2.9,0.5,2.9c0.8-0.1,1.6-0.2,2.4-0.4l0.9-3.1v-3.6l3.4-1.3v-1.8l1.8,0.2l1.8,2.5h8.9c2.5,0,12,7.8,12,7.8l12,1.1
		l3.8,4.3l1.1,8.9l-3.8,2.2l0.2,2.5l8.7,1.8h2.5c0,0,0.7,3.3,1.6,3.3h5.6v4.7c0,0-2.9,1.5-3.5,1.6s-4,5.3-4,5.3s-0.2,2-2,0.7
		c-1.9-1.6-3.7-3.4-5.3-5.3l-1.3-1.5l-0.9,2.5c0,0-0.7,1.3,0.5,1.6s5.1,5.1,5.1,5.1l2.2,2.5l-3,3.9h-6.5l-1.3,5.6l-2.7-1.1l-1.3-3.3
		l-7.8-4.5l-0.7-3.6l-3.1-2.2l-8-0.5l-0.2-1.5l0.9-2.2h1.3l0.2,1.1h4.4l2-4.5l0.7-4.7c0,0,0.9-3.1,1.1-3.8c0.4-1,0.9-2,1.5-2.9
		l-1.5-2.2l-5.1-3.1l-5.6-2.2l-6.9-3.3l-4.9,1.3l-1.8,3.1c0,0,0.7,3.3,2,3.3h5.1l0.9,1.6l-0.9,1.3l-1.5,0.9h-2.9l-2.5,5.8l-1.1,3.5
		l-5.3,2.5l-1.6,2.7c1.1,0.4,2.1,0.7,3.3,0.9c0.7,0,5.5,5.1,5.5,5.1l4.2,0.2l-2.6,2.7h-3l-8.7,0.7l-3.8-1.3l-0.2-1.6
		c0-1.1,0.1-2.3,0.2-3.4c0.1-0.8,0.2-1.6,0.2-2.4c0,0-0.2-2.4-2-1.3c-1.1,0.6-2.2,1.1-3.4,1.3l0.9,3.8l-2.7,0.7h-3.3l-2,5.1
		l-6.9,3.1l-1.4,4.2l-0.9,2.5l-2.9,6.7l-2-0.7l0.4,2.7c1.1,0.2,2.3,0.4,3.5,0.5c0.7,0,3.3,2.7,3.3,2.7l2,4.7h10.3l4.4,4.5l2.9,5.8
		c0,0,5.4-1.3,6.2-1.3s4.5,2.9,4.5,2.9l1.5,9.6l3.8,2l3.1,0.5l0.4-10.7l4.7-4l2.5-5.8l-1.1-7.1l-4.2-0.9l-1.3-7.3l2.9,0.4l0.4-10.2
		l2.7-2l3.6-0.2v3.6h5.8c0.7,0,4-0.7,4-0.7s0.4,4.4,0.9,4.4s4.5-0.4,4.5-0.4l2,6v4.7l2.7,1.1l3.4-0.9l0.7-1.8c0,0,1.3-3.8,1.8-3.8
		s4.4-0.7,4.4-0.7l2.7,0.9l3.5,10.7l5.3,8c0,0,4.2,6.3,7.4,6.3s6.2,4.4,6.2,4.4l-3.1,6l-5.1,5.6l-7.1,0.4l-10.3,1.6l-3.2,1.8
		l-3.5,0.5l0.2,5.6l5.8-1.6c0,0-0.5-0.9,0.5-0.9s4.9-0.5,4.9-0.5s-0.4,3.3-0.4,3.8c0.3,1.2,0.6,2.3,1.1,3.5l6.2,0.2l-2,3.4h7.1
		l-4.7,4.7l-3.1,3.3h-3.6l-5.1,0.2L325,233l-2.2-4c0,0-2,1.3-1.3,2s0.7,5.8,0.7,5.8s-0.4,1.5,0.7,2s2.9,3.5,2.9,3.5l-1.5,1.3
		c-0.5,0.2-1,0.3-1.5,0.4h-1.4l-2.5-0.4l-1.1-2.7l-3.3-1.8c0,0-2.2,1.6-2.2,2.2s-1.1,4.2-1.1,4.2l-4.2,0.7l-3.3,1.6L303,256
		l-5.8,4.7l1.5,9.4l-6.3,2.4l-2.5,8l-2.5,5.6v9.6l2,2.3l-0.5,6.5l-3.8,0.2c0,0-6.5-5.1-6.5-6.7s-0.5-6.2-0.5-6.2l-1.6-2l-2.7-0.2
		l-9.1-3.1v4l-4.9,0.7l-12.2-2.5l-1.3-0.5l-1.7,4.1l-3.6,0.5l-2.9,9.8v4.9c0,2.2-0.4,9.4-0.4,9.4l0.7,3.5h1.6l0.9,4.2l2.5,2.7h2.9
		l0.9,2.2h2.9c0.8-0.1,1.6-0.1,2.4,0c0.5,0.2,4.2-1.5,4.2-2s-0.2-3.4,0.4-4.2s1.8-1.1,2.3-2s4.7-2.7,5.3-3.3s3.8-2.9,3.8-2.9
		c0,1.4,0.1,2.8,0.4,4.2c0.4,1.5-0.2,14.5-0.2,14.5l1.3,1.5c1.1,0.1,1.9,1.1,1.8,2.2c0,2-1.8,17.1-1.8,17.1l2.9,4.2l-1.1,0.7h-4
		c-1.1-0.8-2.3-1.5-3.5-2.2c-0.5-0.2-4.9-3.3-4.9-4.5v-5.3c-0.3-1.2-0.6-2.5-1.1-3.6l-6.9-0.4c0,0-4-2-4-2.5s-2.5-3.1-2.5-3.1
		l-4.5-3.1h-15.2l-1.1-1.2c0.6-1.1,1-2.2,1.3-3.5c0-1.1-1.6-2.7-1.6-2.7l-5.6-4.7l-0.2-3.3l1.8-1.3c-0.1-0.9-0.3-1.8-0.5-2.7
		c-0.4-0.7-6.2-12.7-6.2-12.7l-1.1-1.5l-4.9-5.1l-2.2-2c0,0-2-3.8-2-3.1v7.6c0.2,1.2,0.5,2.4,0.9,3.6c0.4,0.5,0.4,4.2,0.4,4.2v2.9
		l-0.4,1.6h-2L201.1,308.7z"/>
	<path class="st0" d="M294.7,323.6h4.9c0,0,0.5-2,0-2.9c-0.7-0.8-1.4-1.5-2.3-2h-2.6c0,0-1.3-2-1.6-2.5s-2.7-2.5-2.7-3.1
		s1.3-1.1,0-1.6c-1.2-0.4-2.5-0.7-3.8-0.9c0,0-2.5-1.6-2.5,0v3.8c0,0.5,6.5,2.3,6.5,2.3s1.2,4.4,1.4,4.4
		C292.9,321.8,293.8,322.7,294.7,323.6z"/>
	<path class="st0" d="M307.4,332.5v-2.2h-3.1l1.5-2.3c0,0,3.7-1.1,3.7-1.8v-2.5h3.3v1.6l3.8,0.4l1.1,3.6l-1.3,1.1l-2.2,1.5
		c0,0-1.5,1.3-2.4,0.7S307.4,332.5,307.4,332.5z"/>
	<path class="st0" d="M180.7,88.8l2.3-3.3h2.5v1.7l1,3c0,0,2.5,5.3,3.1,4.3s3.9-1.2,3.9-1.2l3.1-1l1.8,2.3c0,0-2.3,3.6,0,3.8
		s5.5-0.4,6.6,0s1.4-0.2,1.4-0.8s1-1.6,2.5-1.6c2.3-0.3,4.6-0.8,6.8-1.4l-0.8-2.7l-2.3-3.4c0,0,0.4-2.9-0.2-3.1c-1-0.1-2-0.1-2.9,0
		c0,0-2.7,2-2.7,2.5c-0.4,1.7-1,3.3-1.6,4.9l-3.5-1l-0.4-3l-3.9-0.2l-0.2,1.6l-6.8-2.5L189,84v-4.3h-9.2v3.7l-3.1,1.6h-3.3
		c0,0-0.4,3.8,0,4.3s0.8-0.6,2.2,0S180.7,88.8,180.7,88.8z"/>
	<path class="st0" d="M204.5,79.8h1.6l2.2-0.8v-2.5h-4.9v3.3c0,0-1.8,2,0,2h1.7L204.5,79.8z"/>
	<path class="st0" d="M221.5,69.3v5.5l1.4,1.8c1.2-0.1,2.5-0.1,3.7,0c1.2,0.2,1.2,0.6,2.3,1.8l1.2,1.2c0.5-0.6,1.4-0.8,2.1-0.3
		c0.2,0.2,0.4,0.4,0.5,0.7c1.2,2-0.2,2.2,1.2,2s1.6-1.2,1.6-2.6v-5c0,0,1.8-1.4,0-1.8c-2.5-0.3-4.9-0.4-7.4-0.4l-3.9-0.4v-2.3
		L221.5,69.3z"/>
	<path class="st0" d="M236.2,95.7v-2.3H234c0,0-2.7-0.4-2.7-1.2v-3c0.5-0.8,1.5-1.2,2.4-1.1h4.2v2.7h2.2c-0.3,1-0.3,2,0,2.9l0.4,2
		l-2.7,0.8L236.2,95.7z"/>
	<path class="st0" d="M235.9,109.1v1.6l0.3,3.3h4.3c1,0,1.6-3.3,1.6-3.3s-0.4-1.6,1-1.6s3.9,2,2.3,0c-1-1.2-2.2-2.2-3.5-2.9h-2.8
		l-0.4-2.5l-2.5-2.2h-2L233,104l-0.8,0.8c0,0-3.5-2-3.4,0.2s2.5,2.7,2.5,2.7h3.7L235.9,109.1z"/>
	<path class="st0" d="M247.3,90.2l2.5-1v-6h-2.5c0,0-1.6,0.6-1.5,1.4s-1.1,3.3,0,3.5S247.3,90.2,247.3,90.2z"/>
	<path class="st0" d="M257.7,98.5v-4.4c0,0-3.3-2.5-3.5-3.1c-0.3-1-0.3-2,0-2.9c0.4-1,0.9-1.9,1.7-2.7V88h4.2v2.2c0,0,1,1.9,2.3,1.7
		c1.3-0.3,2.5-0.9,3.5-1.7l1.6,2.9v1.4c0,0,5.3,0.6,6.3,0.6h14.8l3.7,1.4l-2,2.1L257.7,98.5L257.7,98.5z"/>
	<path class="st0" d="M266.3,86.7c0.6-1.2,1.3-2.4,2-3.5c0.4-0.4,3.3-0.6,3.9-1.4s2.7-1.4,2.9-2.6c0.1-0.9,0.1-1.8,0-2.6
		c0,0-3.8-1.3-4.3-1s-2.7,0.4-3.3,1c-0.8,0.5-1.6,0.9-2.5,1.2l-1.6-2.2c0,0-2.3-0.9-2.5,0.1s-2.5,3.6-2.5,3.6l-2.3-2.6l-3.9-2.5
		v-3.3l-3.1-1.4l-3-1l0.9-3.3l2.3-2.9c0,0,1.8-2.7,2.2-3.3s0-1.6,1.4-1.4c1.8,0.4,3.7,0.9,5.5,1.6l-0.2,3.7h6.1l-3.5-5.2h10.9
		l0.4-1.5h5.3v-3.5h14.3l3.3-3.5h14.7c0,0,6.8,0.6,8.2,0s8.6,0.6,9.4,0s7.2-0.2,7.2-0.2s2.7,0.5,2.9,1.1c0.1,1,0.1,2,0,2.9l2.7,2.3
		c0,0-0.2,2.2-1.4,2.2c-1.3,0.1-2.6,0.3-3.9,0.6l-5.1,3.5l-5.3,3.5l-1.4-0.6l-4.3,0.2l-0.2,3.2h-3.1l-0.6,1.7h-12.3l0.2,9.9h-11.3
		l-2,6.2c0,0,0.4,5.7,1.2,5.7s-10.4-0.8-10.4-0.8h-9.8c-0.6,0-4.7,1.4-4.3,0C266.1,89.1,266.3,87.9,266.3,86.7z"/>
</g>
<ellipse id="circle" transform="matrix(0.3162 -0.9487 0.9487 0.3162 -63.6714 385.6617)" class="st1" cx="235.7" cy="237" rx="21" ry="21"/>
<text transform="matrix(1 0 0 1 225.3058 249.1118)" class="st2 st3 st4">3</text>
</svg>
