<?xml version="1.0" encoding="utf-8"?>
<!-- Generator: Adobe Illustrator 22.1.0, SVG Export Plug-In . SVG Version: 6.00 Build 0)  -->
<svg version="1.1" id="Layer_1" xmlns="http://www.w3.org/2000/svg" xmlns:xlink="http://www.w3.org/1999/xlink" x="0px" y="0px"
	 viewBox="0 0 400 400" style="enable-background:new 0 0 400 400;" xml:space="preserve">
<style type="text/css">
	.st0{fill:#EFEFEF;stroke:#000000;stroke-miterlimit:10;}
	.st1{fill:#018FD3;stroke:#FFFFFF;stroke-miterlimit:10;}
	.st2{fill:#FFFFFF;}
	.st3{font-family:'PetangueDEMO';}
	.st4{font-size:50px;}
</style>
<g id="South_America">
	<path class="st0" d="M174.3,320.7c2.9,0,5.8-18.3,12.1-19s3.7-17.9,3.7-17.9l3.7-5.1h1.8V275l-2.6-4.4l2.6-2.9l5.8-1.8l5.5-4.8
		l7.7-2.9v-9.9l9.1-3.3l6.6-7.3l5.5-4.8l3.3-19l12.8-10.6l10.2-1.8v-7.3l4-6.2v-5.8l7.3-2.2v-12.8l8.8-11.3c0,0,3.7-1.5,2.6-8.8
		s-7-3.3-9.5-3.3s-5.5-8.4-5.5-8.4l-12.8-1.8l-4.8-6.2c0,0-8.4,0-9.9,3.3s-3.7-1.8-3.7-1.8l1.1-13.5l-7-6.6l-10.6-3.3l-4.8-1.8
		l-1.8-7.3l-8.4-5.8h-15.3l-5.8-6.2h-7.3l-8.4,3.3l-1.5,3.7l-7.3,2.6h-8.4c0,0-2.6,3.7,2.2,4.4s5.5,5.5,5.5,8s-0.4,9.5-0.4,9.5v9.1
		l-8,3.7v6.2l2.2,0.4l-2.2,4v8.4c1.3,0.5,2.6,0.9,4,1.1c1.1,0,2.9,8,2.9,8L167,174c0,0,5.5,4,8.4,14.6s1.1,40.6,1.1,40.6
		s-5.1,20.5-10.2,24.5c-1.7,2.8,1.1,20.1,1.1,20.1l1.8,0.7v8.8l-2.9,1.8l0.4,3.3l-0.4,7l-2.6,3.7c0,0,0.7,2.9,1.8,2.9
		s2.2,7.7,2.2,7.7l2.2,5.4C169.9,314.7,171.4,320.7,174.3,320.7z"/>
	<path class="st0" d="M181.6,327.5l9.1,0.3l0.3-2.4l2.4-0.8l-0.8-1.3h-2.5l0.1-2.2l-2.2-0.7v-2.2h-9c0,0-0.3,5.7-0.3,5.9
		c0.7,0.8,1.5,1.4,2.5,1.9c0.3,0,0.3,1.9,0.3,1.9"/>
</g>
<circle class="st1" cx="216.7" cy="172" r="21"/>
<text transform="matrix(1 0 0 1 208.0001 185.0005)" class="st2 st3 st4">5</text>
</svg>
